<svg width="115" height="21" viewBox="0 0 115 21" fill="none" xmlns="http://www.w3.org/2000/svg">
<path d="M1.036 6.952C0.905333 6.74667 0.784 6.46667 0.672 6.112C0.56 5.75733 0.504 5.384 0.504 4.992C0.504 4.264 0.662667 3.74133 0.98 3.424C1.316 3.10667 1.74533 2.948 2.268 2.948H14.476C14.6067 3.15333 14.728 3.43333 14.84 3.788C14.952 4.14267 15.008 4.516 15.008 4.908C15.008 5.636 14.84 6.15867 14.504 6.476C14.1867 6.79333 13.7667 6.952 13.244 6.952H10.136V19.888C9.93067 19.944 9.604 20 9.156 20.056C8.72667 20.112 8.29733 20.14 7.868 20.14C7.43867 20.14 7.056 20.1027 6.72 20.028C6.40267 19.972 6.132 19.86 5.908 19.692C5.684 19.524 5.516 19.2907 5.404 18.992C5.292 18.6933 5.236 18.3013 5.236 17.816V6.952H1.036ZM20.6535 19.972C20.4668 20.028 20.1682 20.084 19.7575 20.14C19.3655 20.196 18.9548 20.224 18.5255 20.224C18.1148 20.224 17.7415 20.196 17.4055 20.14C17.0882 20.084 16.8175 19.972 16.5935 19.804C16.3695 19.636 16.1922 19.412 16.0615 19.132C15.9495 18.8333 15.8935 18.4507 15.8935 17.984V9.584C15.8935 9.15467 15.9682 8.79067 16.1175 8.492C16.2855 8.17467 16.5188 7.89467 16.8175 7.652C17.1162 7.40933 17.4802 7.19467 17.9095 7.008C18.3575 6.80267 18.8335 6.62533 19.3375 6.476C19.8415 6.32667 20.3642 6.21467 20.9055 6.14C21.4468 6.04667 21.9882 6 22.5295 6C23.4255 6 24.1348 6.17733 24.6575 6.532C25.1802 6.868 25.4415 7.428 25.4415 8.212C25.4415 8.47333 25.4042 8.73467 25.3295 8.996C25.2548 9.23867 25.1615 9.46267 25.0495 9.668C24.6575 9.668 24.2562 9.68667 23.8455 9.724C23.4348 9.76133 23.0335 9.81733 22.6415 9.892C22.2495 9.96667 21.8762 10.0507 21.5215 10.144C21.1855 10.2187 20.8962 10.312 20.6535 10.424V19.972ZM32.8191 16.976C33.1364 16.976 33.4817 16.948 33.8551 16.892C34.2471 16.8173 34.5364 16.724 34.7231 16.612V14.372L32.7071 14.54C32.1844 14.5773 31.7551 14.6893 31.4191 14.876C31.0831 15.0627 30.9151 15.3427 30.9151 15.716C30.9151 16.0893 31.0551 16.3973 31.3351 16.64C31.6337 16.864 32.1284 16.976 32.8191 16.976ZM32.5951 5.972C33.6031 5.972 34.5177 6.07467 35.3391 6.28C36.1791 6.48533 36.8884 6.80267 37.4671 7.232C38.0644 7.64267 38.5217 8.17467 38.8391 8.828C39.1564 9.46267 39.3151 10.2187 39.3151 11.096V17.368C39.3151 17.8533 39.1751 18.2547 38.8951 18.572C38.6337 18.8707 38.3164 19.132 37.9431 19.356C36.7297 20.084 35.0217 20.448 32.8191 20.448C31.8297 20.448 30.9337 20.3547 30.1311 20.168C29.3471 19.9813 28.6657 19.7013 28.0871 19.328C27.5271 18.9547 27.0884 18.4787 26.7711 17.9C26.4724 17.3213 26.3231 16.6493 26.3231 15.884C26.3231 14.596 26.7057 13.6067 27.4711 12.916C28.2364 12.2253 29.4217 11.796 31.0271 11.628L34.6951 11.236V11.04C34.6951 10.4987 34.4524 10.116 33.9671 9.892C33.5004 9.64933 32.8191 9.528 31.9231 9.528C31.2137 9.528 30.5231 9.60267 29.8511 9.752C29.1791 9.90133 28.5724 10.088 28.0311 10.312C27.7884 10.144 27.5831 9.892 27.4151 9.556C27.2471 9.20133 27.1631 8.83733 27.1631 8.464C27.1631 7.97867 27.2751 7.596 27.4991 7.316C27.7417 7.01733 28.1057 6.76533 28.5911 6.56C29.1324 6.35467 29.7671 6.20533 30.4951 6.112C31.2417 6.01867 31.9417 5.972 32.5951 5.972ZM42.1135 2.612C42.1135 1.90267 42.3469 1.30533 42.8135 0.819998C43.2989 0.334666 43.9335 0.0919993 44.7175 0.0919993C45.5015 0.0919993 46.1269 0.334666 46.5935 0.819998C47.0789 1.30533 47.3215 1.90267 47.3215 2.612C47.3215 3.32133 47.0789 3.91867 46.5935 4.404C46.1269 4.88933 45.5015 5.132 44.7175 5.132C43.9335 5.132 43.2989 4.88933 42.8135 4.404C42.3469 3.91867 42.1135 3.32133 42.1135 2.612ZM47.0975 19.972C46.8922 20.0093 46.5842 20.056 46.1735 20.112C45.7815 20.1867 45.3802 20.224 44.9695 20.224C44.5589 20.224 44.1855 20.196 43.8495 20.14C43.5322 20.084 43.2615 19.972 43.0375 19.804C42.8135 19.636 42.6362 19.412 42.5055 19.132C42.3935 18.8333 42.3375 18.4507 42.3375 17.984V6.588C42.5429 6.55067 42.8415 6.504 43.2335 6.448C43.6442 6.37333 44.0549 6.336 44.4655 6.336C44.8762 6.336 45.2402 6.364 45.5575 6.42C45.8935 6.476 46.1735 6.588 46.3975 6.756C46.6215 6.924 46.7895 7.15733 46.9015 7.456C47.0322 7.736 47.0975 8.10933 47.0975 8.576V19.972ZM54.9719 19.972C54.7665 20.0093 54.4585 20.056 54.0479 20.112C53.6559 20.1867 53.2545 20.224 52.8439 20.224C52.4332 20.224 52.0599 20.196 51.7239 20.14C51.4065 20.084 51.1359 19.972 50.9119 19.804C50.6879 19.636 50.5105 19.412 50.3799 19.132C50.2679 18.8333 50.2119 18.4507 50.2119 17.984V1.744C50.4172 1.70667 50.7159 1.66 51.1079 1.604C51.5185 1.52933 51.9292 1.492 52.3399 1.492C52.7505 1.492 53.1145 1.52 53.4319 1.576C53.7679 1.632 54.0479 1.744 54.2719 1.912C54.4959 2.08 54.6639 2.31333 54.7759 2.612C54.9065 2.892 54.9719 3.26533 54.9719 3.732V19.972ZM57.5555 6.952C57.4249 6.74667 57.3035 6.46667 57.1915 6.112C57.0795 5.75733 57.0235 5.384 57.0235 4.992C57.0235 4.264 57.1822 3.74133 57.4995 3.424C57.8355 3.10667 58.2649 2.948 58.7875 2.948H70.9955C71.1262 3.15333 71.2475 3.43333 71.3595 3.788C71.4715 4.14267 71.5275 4.516 71.5275 4.908C71.5275 5.636 71.3595 6.15867 71.0235 6.476C70.7062 6.79333 70.2862 6.952 69.7635 6.952H66.6555V19.888C66.4502 19.944 66.1235 20 65.6755 20.056C65.2462 20.112 64.8169 20.14 64.3875 20.14C63.9582 20.14 63.5755 20.1027 63.2395 20.028C62.9222 19.972 62.6515 19.86 62.4275 19.692C62.2035 19.524 62.0355 19.2907 61.9235 18.992C61.8115 18.6933 61.7555 18.3013 61.7555 17.816V6.952H57.5555ZM79.0622 20.448C77.9608 20.448 76.9342 20.2987 75.9822 20C75.0488 19.6827 74.2275 19.216 73.5182 18.6C72.8275 17.984 72.2768 17.2093 71.8662 16.276C71.4742 15.3427 71.2782 14.2507 71.2782 13C71.2782 11.768 71.4742 10.7133 71.8662 9.836C72.2768 8.94 72.8088 8.212 73.4622 7.652C74.1155 7.07333 74.8622 6.65333 75.7022 6.392C76.5422 6.112 77.4008 5.972 78.2782 5.972C79.2675 5.972 80.1635 6.12133 80.9662 6.42C81.7875 6.71867 82.4875 7.12933 83.0662 7.652C83.6635 8.17467 84.1208 8.8 84.4382 9.528C84.7742 10.256 84.9422 11.0493 84.9422 11.908C84.9422 12.5427 84.7648 13.028 84.4102 13.364C84.0555 13.7 83.5608 13.9147 82.9262 14.008L76.0102 15.044C76.2155 15.66 76.6355 16.1267 77.2702 16.444C77.9048 16.7427 78.6328 16.892 79.4542 16.892C80.2195 16.892 80.9382 16.7987 81.6102 16.612C82.3008 16.4067 82.8608 16.1733 83.2902 15.912C83.5888 16.0987 83.8408 16.36 84.0462 16.696C84.2515 17.032 84.3542 17.3867 84.3542 17.76C84.3542 18.6 83.9622 19.2253 83.1782 19.636C82.5808 19.9533 81.9088 20.168 81.1622 20.28C80.4155 20.392 79.7155 20.448 79.0622 20.448ZM78.2782 9.444C77.8302 9.444 77.4382 9.51867 77.1022 9.668C76.7848 9.81733 76.5235 10.0133 76.3182 10.256C76.1128 10.48 75.9542 10.7413 75.8422 11.04C75.7488 11.32 75.6928 11.6093 75.6742 11.908L80.4622 11.124C80.4062 10.7507 80.2008 10.3773 79.8462 10.004C79.4915 9.63067 78.9688 9.444 78.2782 9.444ZM94.9053 9.724C94.4387 9.724 93.9907 9.79867 93.5613 9.948C93.1507 10.0973 92.7867 10.3213 92.4693 10.62C92.1707 10.9 91.928 11.2547 91.7413 11.684C91.5547 12.1133 91.4613 12.6173 91.4613 13.196C91.4613 14.3533 91.788 15.2213 92.4413 15.8C93.1133 16.3787 93.9253 16.668 94.8773 16.668C95.4373 16.668 95.9227 16.6027 96.3333 16.472C96.744 16.3413 97.108 16.2013 97.4253 16.052C97.7987 16.3133 98.0787 16.6027 98.2653 16.92C98.452 17.2187 98.5453 17.5827 98.5453 18.012C98.5453 18.7773 98.1813 19.3747 97.4533 19.804C96.7253 20.2147 95.7173 20.42 94.4293 20.42C93.2533 20.42 92.1893 20.252 91.2373 19.916C90.2853 19.5613 89.464 19.076 88.7733 18.46C88.1013 17.8253 87.5787 17.0693 87.2053 16.192C86.832 15.3147 86.6453 14.344 86.6453 13.28C86.6453 12.048 86.8413 10.9747 87.2333 10.06C87.644 9.12667 88.1947 8.36133 88.8853 7.764C89.576 7.16667 90.3693 6.71867 91.2653 6.42C92.18 6.12133 93.1413 5.972 94.1493 5.972C95.4933 5.972 96.5293 6.21467 97.2573 6.7C97.9853 7.18533 98.3493 7.81067 98.3493 8.576C98.3493 8.93067 98.2653 9.26667 98.0973 9.584C97.9293 9.88267 97.7333 10.144 97.5093 10.368C97.192 10.2187 96.8093 10.0787 96.3613 9.948C95.9133 9.79867 95.428 9.724 94.9053 9.724ZM114.373 19.972C114.186 20.028 113.887 20.084 113.477 20.14C113.085 20.196 112.674 20.224 112.245 20.224C111.834 20.224 111.461 20.196 111.125 20.14C110.807 20.084 110.537 19.972 110.313 19.804C110.089 19.636 109.911 19.412 109.781 19.132C109.669 18.8333 109.613 18.4507 109.613 17.984V11.768C109.613 11.0027 109.417 10.4707 109.025 10.172C108.651 9.85467 108.185 9.696 107.625 9.696C107.251 9.696 106.897 9.74267 106.561 9.836C106.225 9.92933 105.954 10.0413 105.749 10.172V19.972C105.562 20.028 105.263 20.084 104.853 20.14C104.461 20.196 104.05 20.224 103.621 20.224C103.21 20.224 102.837 20.196 102.501 20.14C102.183 20.084 101.913 19.972 101.689 19.804C101.465 19.636 101.287 19.412 101.157 19.132C101.045 18.8333 100.989 18.4507 100.989 17.984V1.744C101.194 1.70667 101.493 1.66 101.885 1.604C102.295 1.52933 102.706 1.492 103.117 1.492C103.527 1.492 103.891 1.52 104.209 1.576C104.545 1.632 104.825 1.744 105.049 1.912C105.273 2.08 105.441 2.31333 105.553 2.612C105.683 2.892 105.749 3.26533 105.749 3.732V6.476C105.991 6.38267 106.355 6.28 106.841 6.168C107.345 6.03733 107.895 5.972 108.493 5.972C110.341 5.972 111.778 6.43867 112.805 7.372C113.85 8.28667 114.373 9.65867 114.373 11.488V19.972Z" fill="white"/>
</svg>
