<svg width="17" height="20" viewBox="0 0 17 20" fill="none" xmlns="http://www.w3.org/2000/svg">
<path d="M8.64197 0C5.84197 0 3.64197 2.2 3.64197 5C3.64197 7.8 5.84197 10 8.64197 10C11.442 10 13.642 7.8 13.642 5C13.642 2.2 11.442 0 8.64197 0ZM8.64197 1.5C10.542 1.5 12.142 3.1 12.142 5C12.142 6.9 10.542 8.5 8.64197 8.5C6.74197 8.5 5.14197 6.9 5.14197 5C5.14197 3.1 6.74197 1.5 8.64197 1.5ZM2.94197 12C1.64197 12 0.641968 13 0.641968 14.3V14.9C0.641968 16.4 1.54197 17.7 3.04197 18.6C4.54197 19.5 6.34197 20 8.64197 20C10.942 20 12.842 19.5 14.242 18.5C15.642 17.5 16.642 16.3 16.642 14.8V14.2C16.642 13 15.642 11.9 14.342 11.9H2.94197V12ZM2.94197 13.5H14.442C14.842 13.5 15.242 13.8 15.242 14.3V14.9C15.242 15.7 14.742 16.6 13.542 17.3C12.342 18 10.642 18.5 8.64197 18.5C6.64197 18.5 4.94197 18 3.84197 17.3C2.74197 16.6 2.14197 15.7 2.14197 14.9V14.3C2.14197 13.8 2.44197 13.5 2.94197 13.5Z" fill="#212629"/>
</svg>
