<?xml version="1.0" encoding="UTF-8"?>
<svg xmlns="http://www.w3.org/2000/svg" xmlns:xlink="http://www.w3.org/1999/xlink" width="19px" height="13px" viewBox="0 0 18 13" version="1.1">
<g id="surface1">
<path style=" stroke:none;fill-rule:evenodd;fill:#212629;fill-opacity:1;" d="M 17.746094 10.175781 C 17.335938 9.3125 16.796875 8.527344 16.144531 7.84375 C 15.925781 7.578125 15.664062 7.3125 15.464844 7.105469 L 15.433594 7.078125 C 15.332031 6.96875 15.246094 6.882812 15.171875 6.804688 C 16.0625 5.515625 16.820312 4.136719 17.441406 2.6875 L 17.46875 2.628906 L 17.484375 2.566406 C 17.566406 2.28125 17.660156 1.738281 17.328125 1.25 C 16.984375 0.742188 16.433594 0.652344 16.066406 0.652344 L 14.375 0.652344 C 14.019531 0.632812 13.671875 0.734375 13.375 0.9375 C 13.078125 1.140625 12.847656 1.4375 12.722656 1.785156 C 12.359375 2.691406 11.902344 3.554688 11.363281 4.355469 L 11.363281 2.285156 C 11.363281 2.019531 11.335938 1.570312 11.0625 1.195312 C 10.734375 0.742188 10.257812 0.652344 9.929688 0.652344 L 7.242188 0.652344 C 6.894531 0.644531 6.558594 0.773438 6.300781 1.011719 C 6.035156 1.261719 5.871094 1.605469 5.847656 1.976562 L 5.84375 2.007812 L 5.84375 2.042969 C 5.84375 2.425781 5.988281 2.707031 6.105469 2.886719 C 6.15625 2.964844 6.210938 3.035156 6.246094 3.082031 L 6.253906 3.09375 C 6.292969 3.140625 6.316406 3.171875 6.34375 3.210938 C 6.410156 3.300781 6.503906 3.445312 6.53125 3.820312 L 6.53125 4.976562 C 6.066406 4.183594 5.578125 3.125 5.210938 1.996094 L 5.203125 1.980469 L 5.199219 1.960938 C 5.105469 1.710938 4.960938 1.347656 4.664062 1.066406 C 4.320312 0.742188 3.914062 0.652344 3.542969 0.652344 L 1.824219 0.652344 C 1.453125 0.652344 1 0.742188 0.664062 1.113281 C 0.332031 1.476562 0.292969 1.914062 0.292969 2.148438 L 0.292969 2.25 L 0.316406 2.355469 C 0.792969 4.660156 1.773438 6.816406 3.179688 8.660156 C 3.820312 9.710938 4.683594 10.589844 5.707031 11.230469 C 6.746094 11.878906 7.917969 12.261719 9.128906 12.347656 L 9.160156 12.351562 L 9.191406 12.351562 C 9.738281 12.351562 10.308594 12.300781 10.738281 12.003906 C 11.316406 11.601562 11.363281 10.984375 11.363281 10.675781 L 11.363281 9.78125 C 11.511719 9.90625 11.695312 10.074219 11.917969 10.300781 C 12.191406 10.585938 12.410156 10.832031 12.59375 11.046875 L 12.695312 11.164062 C 12.839844 11.332031 12.984375 11.496094 13.113281 11.632812 C 13.273438 11.804688 13.476562 11.992188 13.726562 12.128906 C 14 12.28125 14.289062 12.347656 14.59375 12.347656 L 16.3125 12.347656 C 16.675781 12.347656 17.195312 12.257812 17.558594 11.816406 C 17.957031 11.335938 17.925781 10.746094 17.800781 10.320312 L 17.777344 10.246094 Z M 13.433594 10.257812 C 13.242188 10.035156 13.007812 9.769531 12.714844 9.460938 L 12.710938 9.457031 C 11.6875 8.429688 11.210938 8.25 10.875 8.25 C 10.695312 8.25 10.496094 8.273438 10.367188 8.441406 C 10.304688 8.519531 10.273438 8.613281 10.253906 8.714844 C 10.238281 8.8125 10.230469 8.929688 10.230469 9.0625 L 10.230469 10.675781 C 10.230469 10.875 10.199219 10.960938 10.109375 11.023438 C 9.992188 11.105469 9.738281 11.171875 9.199219 11.171875 C 8.167969 11.097656 7.171875 10.769531 6.289062 10.21875 C 5.402344 9.664062 4.65625 8.898438 4.109375 7.984375 L 4.105469 7.976562 L 4.097656 7.964844 C 2.785156 6.261719 1.871094 4.261719 1.425781 2.125 C 1.429688 2.023438 1.449219 1.964844 1.484375 1.925781 C 1.519531 1.886719 1.605469 1.832031 1.824219 1.832031 L 3.542969 1.832031 C 3.734375 1.832031 3.835938 1.875 3.90625 1.941406 C 3.984375 2.019531 4.054688 2.148438 4.140625 2.378906 C 4.5625 3.671875 5.132812 4.882812 5.671875 5.773438 C 5.945312 6.21875 6.210938 6.589844 6.449219 6.851562 C 6.566406 6.980469 6.683594 7.089844 6.796875 7.167969 C 6.90625 7.242188 7.027344 7.300781 7.152344 7.300781 C 7.21875 7.300781 7.296875 7.292969 7.375 7.257812 C 7.453125 7.21875 7.515625 7.15625 7.5625 7.074219 C 7.640625 6.925781 7.660156 6.710938 7.660156 6.425781 L 7.660156 3.773438 C 7.621094 3.128906 7.433594 2.769531 7.253906 2.511719 C 7.214844 2.453125 7.175781 2.402344 7.140625 2.359375 L 7.132812 2.347656 C 7.09375 2.296875 7.0625 2.257812 7.039062 2.21875 C 6.992188 2.152344 6.976562 2.101562 6.976562 2.050781 C 6.980469 1.992188 7.007812 1.933594 7.050781 1.894531 C 7.097656 1.851562 7.15625 1.828125 7.21875 1.832031 L 9.929688 1.832031 C 10.082031 1.832031 10.136719 1.871094 10.164062 1.90625 C 10.199219 1.957031 10.230469 2.0625 10.230469 2.285156 L 10.230469 5.847656 C 10.230469 6.269531 10.417969 6.554688 10.691406 6.554688 C 11 6.554688 11.226562 6.359375 11.621094 5.949219 L 11.628906 5.941406 L 11.632812 5.933594 C 12.515625 4.8125 13.238281 3.5625 13.773438 2.222656 L 13.777344 2.210938 C 13.816406 2.09375 13.894531 1.992188 13.996094 1.921875 C 14.09375 1.855469 14.214844 1.820312 14.335938 1.832031 L 16.066406 1.832031 C 16.300781 1.832031 16.378906 1.894531 16.40625 1.929688 C 16.429688 1.96875 16.449219 2.054688 16.40625 2.21875 C 15.785156 3.664062 15.019531 5.035156 14.121094 6.308594 L 14.117188 6.316406 C 14.03125 6.457031 13.933594 6.609375 13.921875 6.785156 C 13.90625 6.976562 13.984375 7.148438 14.121094 7.332031 C 14.222656 7.488281 14.429688 7.699219 14.640625 7.914062 L 14.660156 7.933594 C 14.878906 8.160156 15.117188 8.402344 15.308594 8.636719 L 15.3125 8.644531 L 15.320312 8.652344 C 15.890625 9.246094 16.367188 9.929688 16.726562 10.683594 C 16.78125 10.890625 16.746094 10.992188 16.703125 11.046875 C 16.652344 11.109375 16.535156 11.167969 16.3125 11.167969 L 14.59375 11.167969 C 14.457031 11.167969 14.355469 11.140625 14.257812 11.085938 C 14.152344 11.03125 14.046875 10.941406 13.914062 10.800781 C 13.804688 10.6875 13.6875 10.550781 13.546875 10.386719 C 13.511719 10.34375 13.472656 10.300781 13.433594 10.257812 Z M 13.433594 10.257812 "/>
</g>
</svg>
