<svg width="26" height="18" viewBox="0 0 26 18" fill="none" xmlns="http://www.w3.org/2000/svg">
<path fill-rule="evenodd" clip-rule="evenodd" d="M25.6321 14.0877C25.04 12.8951 24.2598 11.8058 23.3215 10.8614C23.0022 10.4902 22.6279 10.1239 22.3356 9.83804L22.2948 9.79809C22.144 9.65047 22.0195 9.52801 21.9176 9.42252C23.2005 7.63854 24.2985 5.72834 25.1944 3.72128L25.2306 3.6403L25.256 3.55531C25.3736 3.16027 25.5093 2.40907 25.0295 1.73019C24.5337 1.02851 23.7397 0.901962 23.208 0.901962H20.7618C20.2519 0.87859 19.7469 1.01645 19.3191 1.29673C18.888 1.57912 18.5583 1.99103 18.3768 2.47254C17.8501 3.72734 17.1909 4.92088 16.4114 6.03318V3.16661C16.4114 2.79606 16.3766 2.17621 15.9798 1.65303C15.5047 1.02662 14.8177 0.901962 14.3408 0.901962H10.4594C9.95933 0.890401 9.47298 1.0692 9.09922 1.40299C8.71648 1.7448 8.48191 2.22228 8.44527 2.73416L8.44181 2.78264V2.83126C8.44181 3.35975 8.65123 3.74958 8.81853 3.99475C8.89344 4.10452 8.97356 4.20444 9.02417 4.26754L9.03585 4.28211C9.08981 4.3494 9.12583 4.39432 9.16198 4.44349C9.25707 4.57284 9.39384 4.77227 9.43254 5.28832V6.89177C8.76339 5.79178 8.05751 4.328 7.52639 2.76465L7.51823 2.74065L7.5092 2.71698C7.37677 2.37013 7.16436 1.86546 6.73896 1.47926C6.24198 1.0281 5.65417 0.901962 5.11958 0.901962H2.63765C2.09683 0.901962 1.44484 1.02849 0.958359 1.54167C0.479964 2.04633 0.425781 2.65103 0.425781 2.97255V3.11747L0.456304 3.25914C1.14375 6.44992 2.56024 9.43798 4.59449 11.9896C5.51676 13.444 6.76646 14.6631 8.24417 15.5491C9.74545 16.4494 11.4391 16.9799 13.1857 17.0973L13.2312 17.1003H13.2769C14.067 17.1003 14.8907 17.0322 15.5101 16.6194C16.3457 16.0626 16.4114 15.2074 16.4114 14.7812V13.5425C16.6258 13.7158 16.8919 13.9492 17.2176 14.2628C17.6113 14.6569 17.9249 14.9984 18.1937 15.2964L18.3372 15.456C18.546 15.6886 18.7524 15.9184 18.9395 16.1065C19.1748 16.3429 19.4648 16.6035 19.8293 16.796C20.2241 17.0044 20.6384 17.0987 21.0785 17.0987H23.5621C24.0853 17.0987 24.8358 16.9749 25.3634 16.3633C25.9384 15.6966 25.8945 14.8795 25.7137 14.2923L25.6812 14.1867L25.6321 14.0877ZM19.4061 14.2026C19.1265 13.8927 18.7894 13.5253 18.3633 13.0993L18.3599 13.0959C16.8836 11.6725 16.1938 11.4245 15.7061 11.4245C15.4467 11.4245 15.1596 11.4537 14.9734 11.6857C14.8854 11.7952 14.8392 11.9274 14.8133 12.0651C14.7874 12.2026 14.7785 12.364 14.7785 12.5479V14.7812C14.7785 15.0586 14.7329 15.1751 14.6047 15.2606C14.4337 15.3745 14.0685 15.4668 13.286 15.4675C11.8008 15.3662 10.3607 14.9143 9.08386 14.1487C7.80442 13.3816 6.72554 12.3214 5.93608 11.0556L5.92749 11.0419L5.91732 11.0292C4.02179 8.66987 2.70097 5.90225 2.05899 2.94498C2.06247 2.80242 2.09336 2.71785 2.1434 2.66505C2.19497 2.61066 2.31992 2.53485 2.63765 2.53485H5.11958C5.39567 2.53485 5.53856 2.5949 5.6414 2.68826C5.75798 2.7941 5.8591 2.97384 5.98195 3.29477C6.59114 5.08656 7.41494 6.76223 8.19504 7.99429C8.58495 8.61011 8.96869 9.12273 9.31443 9.4849C9.48701 9.66582 9.65628 9.81561 9.8178 9.92219C9.97414 10.0253 10.1514 10.1066 10.3337 10.1066C10.4298 10.1066 10.5423 10.0967 10.6507 10.0487C10.7672 9.99719 10.8576 9.91119 10.9215 9.79591C11.0345 9.59213 11.0654 9.29026 11.0654 8.89478V5.23308L11.0649 5.22449C11.0085 4.33365 10.7395 3.83254 10.4776 3.4763C10.4202 3.39823 10.3636 3.32771 10.3141 3.266L10.3005 3.24909C10.2461 3.18127 10.2029 3.12647 10.1673 3.07436C10.1022 2.97888 10.0769 2.91231 10.0748 2.84098C10.0833 2.75631 10.1232 2.67775 10.1869 2.6209C10.253 2.5619 10.3394 2.53118 10.4279 2.53485H14.3408C14.5651 2.53485 14.6407 2.58958 14.6787 2.63972C14.7323 2.7105 14.7785 2.85771 14.7785 3.16661V8.0964C14.7785 8.68196 15.0485 9.07842 15.4405 9.07842C15.8916 9.07842 16.2167 8.80475 16.7854 8.23607L16.7949 8.2266L16.8034 8.21615C18.0779 6.66197 19.1196 4.93044 19.8949 3.07597L19.8998 3.06207C19.9581 2.89821 20.0684 2.75792 20.2139 2.6626C20.3594 2.5673 20.532 2.5222 20.7055 2.5342L20.715 2.53485H23.208C23.548 2.53485 23.6599 2.62138 23.696 2.67255C23.7344 2.72699 23.7612 2.84368 23.6959 3.07251C22.8021 5.07161 21.6967 6.96917 20.3992 8.73334L20.391 8.74575C20.2651 8.93843 20.127 9.15157 20.1069 9.39629C20.0855 9.65907 20.1992 9.89802 20.3981 10.1541C20.5431 10.3684 20.8422 10.6611 21.1456 10.9581L21.1742 10.9861C21.4923 11.2974 21.8368 11.6346 22.1134 11.9612L22.1208 11.9698L22.1289 11.9779C22.9535 12.8004 23.6392 13.7513 24.1592 14.7933C24.2423 15.077 24.1914 15.222 24.1269 15.2968C24.0514 15.3843 23.8823 15.4658 23.5621 15.4658H21.0785C20.8845 15.4658 20.7348 15.4276 20.5918 15.3521C20.4428 15.2734 20.2895 15.1482 20.0972 14.955C19.9424 14.7993 19.7733 14.611 19.5669 14.3814C19.5157 14.3244 19.4623 14.2648 19.4061 14.2026Z" fill="white"/>
</svg>
