<svg width="21" height="20" viewBox="0 0 21 20" fill="none" xmlns="http://www.w3.org/2000/svg">
<path d="M10.9202 0C5.38943 0 0.864289 4.5 0.864289 10C0.864289 11.6 1.26652 13.2 1.97043 14.5L0.864289 18.4C0.562613 19.3 1.46764 20.2 2.37267 19.9L6.29446 18.8C7.70228 19.6 9.31122 20 10.9202 20C16.4509 20 20.976 15.5 20.976 10C20.976 4.5 16.4509 0 10.9202 0ZM10.9202 1.5C15.6464 1.5 19.4676 5.3 19.4676 10C19.4676 14.7 15.6464 18.5 10.9202 18.5C9.41178 18.5 8.00395 18.1 6.79725 17.4C6.59613 17.3 6.39502 17.3 6.1939 17.3L2.47323 18.3L3.47881 14.6C3.57937 14.4 3.47881 14.2 3.37826 14C2.67435 12.8 2.27211 11.4 2.27211 9.9C2.37267 5.3 6.1939 1.5 10.9202 1.5ZM7.50116 5.5C7.4006 5.5 7.09893 5.6 6.89781 5.8C6.69669 6 5.99278 6.6 5.99278 7.8C5.99278 9 6.89781 10.1 6.99837 10.3C7.09893 10.5 8.70786 12.9 11.1213 13.9C13.1324 14.7 13.5347 14.5 14.0375 14.5C14.4397 14.5 15.4453 13.9 15.6464 13.4C15.8475 12.8 15.8475 12.4 15.747 12.3C15.6464 12.2 15.5459 12.1 15.2442 12C15.0431 11.9 13.8364 11.3 13.6352 11.2C13.4341 11.1 13.233 11.1 13.1324 11.3C12.9313 11.5 12.5291 12.1 12.328 12.2C12.2274 12.4 12.0263 12.4 11.8252 12.3C11.6241 12.2 10.8196 11.9 9.91457 11.1C9.21066 10.5 8.70786 9.7 8.60731 9.4C8.40619 9.2 8.60731 9 8.70786 8.9C8.80842 8.8 8.90898 8.6 9.00954 8.5C9.1101 8.4 9.21066 8.3 9.21066 8.1C9.31122 7.9 9.21066 7.8 9.21066 7.7C9.21066 7.6 8.70786 6.4 8.50675 5.9C8.30563 5.5 8.10451 5.5 8.00395 5.5C7.80284 5.5 7.70228 5.5 7.50116 5.5Z" fill="white"/>
</svg>
