<?xml version="1.0" encoding="UTF-8"?>
<svg xmlns="http://www.w3.org/2000/svg" xmlns:xlink="http://www.w3.org/1999/xlink" width="19px" height="18px" viewBox="0 0 18 18" version="1.1">
<g id="surface1">
<path style=" stroke:none;fill-rule:nonzero;fill:#212629;fill-opacity:1;" d="M 9.359375 0 C 4.621094 0 0.742188 4.050781 0.742188 9 C 0.742188 10.441406 1.085938 11.878906 1.6875 13.050781 L 0.742188 16.558594 C 0.480469 17.371094 1.257812 18.179688 2.035156 17.910156 L 5.394531 16.921875 C 6.601562 17.640625 7.980469 18 9.359375 18 C 14.101562 18 17.980469 13.949219 17.980469 9 C 17.980469 4.050781 14.101562 0 9.359375 0 Z M 9.359375 1.351562 C 13.410156 1.351562 16.6875 4.769531 16.6875 9 C 16.6875 13.230469 13.410156 16.648438 9.359375 16.648438 C 8.066406 16.648438 6.859375 16.289062 5.828125 15.660156 C 5.652344 15.570312 5.480469 15.570312 5.308594 15.570312 L 2.121094 16.46875 L 2.980469 13.140625 C 3.066406 12.960938 2.980469 12.78125 2.894531 12.601562 C 2.292969 11.519531 1.949219 10.261719 1.949219 8.910156 C 2.035156 4.769531 5.308594 1.351562 9.359375 1.351562 Z M 6.429688 4.949219 C 6.34375 4.949219 6.085938 5.039062 5.914062 5.21875 C 5.738281 5.398438 5.136719 5.941406 5.136719 7.019531 C 5.136719 8.101562 5.914062 9.089844 6 9.269531 C 6.085938 9.449219 7.464844 11.609375 9.53125 12.511719 C 11.257812 13.230469 11.601562 13.050781 12.03125 13.050781 C 12.375 13.050781 13.238281 12.511719 13.410156 12.058594 C 13.582031 11.519531 13.582031 11.160156 13.496094 11.070312 C 13.410156 10.980469 13.324219 10.890625 13.066406 10.800781 C 12.894531 10.710938 11.859375 10.171875 11.6875 10.078125 C 11.515625 9.988281 11.34375 9.988281 11.257812 10.171875 C 11.082031 10.351562 10.738281 10.890625 10.566406 10.980469 C 10.480469 11.160156 10.308594 11.160156 10.136719 11.070312 C 9.964844 10.980469 9.273438 10.710938 8.5 9.988281 C 7.894531 9.449219 7.464844 8.730469 7.378906 8.460938 C 7.207031 8.28125 7.378906 8.101562 7.464844 8.011719 C 7.550781 7.921875 7.636719 7.738281 7.722656 7.648438 C 7.808594 7.558594 7.894531 7.46875 7.894531 7.289062 C 7.980469 7.109375 7.894531 7.019531 7.894531 6.929688 C 7.894531 6.839844 7.464844 5.761719 7.292969 5.308594 C 7.117188 4.949219 6.945312 4.949219 6.859375 4.949219 C 6.6875 4.949219 6.601562 4.949219 6.429688 4.949219 Z M 6.429688 4.949219 "/>
</g>
</svg>
