<svg width="91" height="40" viewBox="0 0 91 40" fill="none" xmlns="http://www.w3.org/2000/svg">
<path d="M45.3557 0.326416C38.5697 0.326416 33.0301 5.44594 33.0301 11.7174C33.0301 17.9888 38.5697 23.1083 45.3557 23.1083C52.1417 23.1083 57.6813 17.9888 57.6813 11.7174C57.6813 5.44594 52.1417 0.326416 45.3557 0.326416Z" fill="#212629"/>
<path d="M78.3856 0.326416C71.5996 0.326416 66.06 5.38195 66.06 11.6534C66.06 17.9248 71.5303 23.0443 78.3164 23.0443C85.1024 23.0443 90.642 17.9888 90.642 11.7174C90.642 5.44594 85.1716 0.326416 78.3856 0.326416Z" fill="#212629"/>
<path d="M12.3256 0.326416C5.53961 0.326416 0 5.38195 0 11.7174C0 17.9888 5.47037 23.1083 12.3256 23.1083C19.1809 23.1083 24.6513 18.0528 24.6513 11.7174C24.582 5.44594 19.1117 0.326416 12.3256 0.326416Z" fill="#212629"/>
<path d="M76.4468 36.7708L77.4855 37.1547C77.5547 37.2187 77.6239 37.2827 77.5547 37.4107C76.3083 39.5225 73.4692 40.2904 71.1841 39.1385C69.5915 38.3066 68.6221 36.7068 68.6913 34.9789C68.8298 32.7391 70.8379 30.9473 73.2615 30.8833H73.4C75.1311 30.8833 76.7238 31.7792 77.5547 33.1231C77.6239 33.1871 77.5547 33.3151 77.4855 33.3151L76.4468 33.763C76.3775 33.827 76.239 33.763 76.239 33.699C75.3389 32.2272 73.3307 31.7792 71.8073 32.6111C71.5304 32.8031 71.2534 32.9951 70.9764 33.1871C70.3532 33.827 70.0762 34.659 70.1455 35.5549C70.3532 37.2187 71.9458 38.3706 73.7462 38.1786C74.7849 38.0506 75.6851 37.5387 76.1698 36.7068C76.3083 36.7708 76.3775 36.7068 76.4468 36.7708Z" fill="#212629"/>
<path d="M5.05498 34.6589L4.50102 34.5949C3.32385 34.4029 2.42366 34.2109 2.35442 33.443C2.35442 33.187 2.49291 32.931 2.70064 32.739C3.18536 32.3551 3.73932 32.2271 4.36253 32.2271C5.26272 32.2271 6.09366 32.4191 6.85535 32.803C6.9246 32.867 7.06309 32.803 7.06309 32.739L7.61705 31.8431C7.6863 31.7791 7.61705 31.6511 7.54781 31.5871C6.57837 31.0752 5.47045 30.8192 4.29328 30.8832C3.25461 30.8192 2.21593 31.2032 1.45423 31.8431C0.969513 32.2911 0.761777 32.931 0.761777 33.507C0.761777 34.8508 1.66196 35.6188 3.53159 35.8747L4.15479 35.9387C5.33196 36.1307 6.30139 36.3227 6.30139 37.1546C6.30139 37.4106 6.1629 37.6666 5.95517 37.8586C5.47045 38.2425 4.84724 38.4345 4.22404 38.3705C3.18536 38.3705 2.21593 38.1145 1.38499 37.6026C1.31574 37.5386 1.17725 37.6026 1.17725 37.6666L0.623286 38.4985C0.554041 38.5625 0.623288 38.6905 0.692533 38.7545C1.80046 39.3944 3.04687 39.7144 4.36253 39.6504C5.47045 39.7144 6.50913 39.3304 7.34007 38.6905C7.82479 38.2425 8.10177 37.6026 8.03252 36.9626C7.96328 35.7468 6.99385 34.9788 5.05498 34.6589Z" fill="#212629"/>
<path d="M22.2278 38.2426H17.1729V35.9388H22.0201C22.0893 35.9388 22.2278 35.8748 22.2278 35.7468V34.7869C22.2278 34.7229 22.1586 34.5949 22.0201 34.5949H17.1729V32.3551H22.2278C22.2971 32.3551 22.4356 32.2911 22.4356 32.1631V31.2032C22.4356 31.1392 22.3663 31.0112 22.2278 31.0112H15.8573C15.788 31.0112 15.6495 31.0752 15.6495 31.2032V39.3305C15.6495 39.3945 15.7188 39.5224 15.8573 39.5224H22.2278C22.2971 39.5224 22.4356 39.4584 22.4356 39.3305V38.3705C22.4356 38.3066 22.3663 38.2426 22.2278 38.2426Z" fill="#212629"/>
<path d="M53.3188 31.0752H52.0032C51.9339 31.0752 51.7954 31.1392 51.7954 31.2032L49.0256 38.3705L46.2558 31.2032C46.2558 31.1392 46.1173 31.0752 46.0481 31.0752H44.7324C44.6632 31.0752 44.5939 31.1392 44.5939 31.2032C44.5939 31.2032 44.5939 31.2032 44.5939 31.2672L47.9177 39.3944C47.9177 39.4584 48.0562 39.5224 48.1254 39.5224H49.9258C49.9951 39.5224 50.0643 39.4584 50.1335 39.3944L53.4573 31.2672C53.4573 31.2032 53.4573 31.1392 53.3188 31.0752C53.3881 31.0752 53.3881 31.0752 53.3188 31.0752Z" fill="#212629"/>
<path d="M61.6282 31.0752H60.4511C60.3818 31.0752 60.2433 31.1392 60.2433 31.2672V39.3944C60.2433 39.4584 60.3126 39.5864 60.3818 39.5864H61.559C61.6282 39.5864 61.7667 39.5224 61.7667 39.3944V31.2032C61.7667 31.1392 61.6975 31.0752 61.6282 31.0752Z" fill="#212629"/>
<path d="M37.9464 39.2665L36.0768 36.2587L36.2845 36.1948C37.7386 35.6188 38.3618 34.0829 37.8079 32.8031C37.6694 32.5471 37.5309 32.2911 37.3232 32.0351C36.7 31.3952 35.7998 31.0112 34.8303 31.0112H31.1603C30.8141 31.0112 30.7449 31.0752 30.7449 31.2032V39.3305C30.7449 39.3945 30.8141 39.5224 30.8834 39.5224H32.0605C32.1298 39.5224 32.2683 39.4584 32.2683 39.3305V36.4507H34.6226L36.423 39.3305C36.4922 39.3945 36.5615 39.4585 36.7 39.4585H37.9464C37.8771 39.5224 37.9464 39.4584 37.9464 39.2665C37.9464 39.3305 37.9464 39.3305 37.9464 39.2665ZM34.9688 35.2988H32.199V32.3551H34.9688C35.869 32.4191 36.4922 33.123 36.423 33.891C36.423 34.6589 35.7305 35.2348 34.9688 35.2988Z" fill="#212629"/>
<path d="M90.0188 38.2426H84.9639V35.9388H89.811C89.8803 35.9388 90.0188 35.8748 90.0188 35.7468V34.7869C90.0188 34.7229 89.9495 34.5949 89.811 34.5949H84.9639V32.3551H89.9495C90.0188 32.3551 90.1573 32.2911 90.1573 32.1631V31.2032C90.1573 31.1392 90.088 31.0112 89.9495 31.0112H83.579C83.5097 31.0112 83.3712 31.0752 83.3712 31.2032V39.3305C83.3712 39.3945 83.4405 39.5224 83.579 39.5224H89.9495C90.0188 39.5224 90.1573 39.4584 90.1573 39.3305V38.3705C90.1573 38.3066 90.088 38.2426 90.0188 38.2426Z" fill="#212629"/>
</svg>
